<svg xmlns="http://www.w3.org/2000/svg">
    <symbol id="logo" viewBox="0 0 640 640">
        <path
            d="M112 208C138.5 208 160 186.5 160 160C160 133.5 138.5 112 112 112C85.5 112 64 133.5 64 160C64 186.5 85.5 208 112 208zM256 128C238.3 128 224 142.3 224 160C224 177.7 238.3 192 256 192L544 192C561.7 192 576 177.7 576 160C576 142.3 561.7 128 544 128L256 128zM256 288C238.3 288 224 302.3 224 320C224 337.7 238.3 352 256 352L544 352C561.7 352 576 337.7 576 320C576 302.3 561.7 288 544 288L256 288zM256 448C238.3 448 224 462.3 224 480C224 497.7 238.3 512 256 512L544 512C561.7 512 576 497.7 576 480C576 462.3 561.7 448 544 448L256 448zM112 528C138.5 528 160 506.5 160 480C160 453.5 138.5 432 112 432C85.5 432 64 453.5 64 480C64 506.5 85.5 528 112 528zM160 320C160 293.5 138.5 272 112 272C85.5 272 64 293.5 64 320C64 346.5 85.5 368 112 368C138.5 368 160 346.5 160 320z"
            fill="currentColor" />
    </symbol>
    <symbol id="trash-can" viewBox="0 0 640 640">
        <path
            d="M262.2 48C248.9 48 236.9 56.3 232.2 68.8L216 112L120 112C106.7 112 96 122.7 96 136C96 149.3 106.7 160 120 160L520 160C533.3 160 544 149.3 544 136C544 122.7 533.3 112 520 112L424 112L407.8 68.8C403.1 56.3 391.2 48 377.8 48L262.2 48zM128 208L128 512C128 547.3 156.7 576 192 576L448 576C483.3 576 512 547.3 512 512L512 208L464 208L464 512C464 520.8 456.8 528 448 528L192 528C183.2 528 176 520.8 176 512L176 208L128 208zM288 280C288 266.7 277.3 256 264 256C250.7 256 240 266.7 240 280L240 456C240 469.3 250.7 480 264 480C277.3 480 288 469.3 288 456L288 280zM400 280C400 266.7 389.3 256 376 256C362.7 256 352 266.7 352 280L352 456C352 469.3 362.7 480 376 480C389.3 480 400 469.3 400 456L400 280z"
            fill="currentColor" />
    </symbol>
    <symbol id="circle" viewBox="0 0 640 640">
        <path
            d="M528 320C528 205.1 434.9 112 320 112C205.1 112 112 205.1 112 320C112 434.9 205.1 528 320 528C434.9 528 528 434.9 528 320zM64 320C64 178.6 178.6 64 320 64C461.4 64 576 178.6 576 320C576 461.4 461.4 576 320 576C178.6 576 64 461.4 64 320z"
            fill="currentColor" />
    </symbol>
    <symbol id="check" viewBox="0 0 640 640">
        <path
            d="M320 576C178.6 576 64 461.4 64 320C64 178.6 178.6 64 320 64C461.4 64 576 178.6 576 320C576 461.4 461.4 576 320 576zM438 209.7C427.3 201.9 412.3 204.3 404.5 215L285.1 379.2L233 327.1C223.6 317.7 208.4 317.7 199.1 327.1C189.8 336.5 189.7 351.7 199.1 361L271.1 433C276.1 438 282.9 440.5 289.9 440C296.9 439.5 303.3 435.9 307.4 430.2L443.3 243.2C451.1 232.5 448.7 217.5 438 209.7z"
            fill="currentColor" />
    </symbol>
    <symbol id="modify" viewBox="0 0 640 640">
        <path
            d="M100.4 417.2C104.5 402.6 112.2 389.3 123 378.5L304.2 197.3L338.1 163.4C354.7 180 389.4 214.7 442.1 267.4L476 301.3L442.1 335.2L260.9 516.4C250.2 527.1 236.8 534.9 222.2 539L94.4 574.6C86.1 576.9 77.1 574.6 71 568.4C64.9 562.2 62.6 553.3 64.9 545L100.4 417.2zM156 413.5C151.6 418.2 148.4 423.9 146.7 430.1L122.6 517L209.5 492.9C215.9 491.1 221.7 487.8 226.5 483.2L155.9 413.5zM510 267.4C493.4 250.8 458.7 216.1 406 163.4L372 129.5C398.5 103 413.4 88.1 416.9 84.6C430.4 71 448.8 63.4 468 63.4C487.2 63.4 505.6 71 519.1 84.6L554.8 120.3C568.4 133.9 576 152.3 576 171.4C576 190.5 568.4 209 554.8 222.5C551.3 226 536.4 240.9 509.9 267.4z"
            fill="currentColor" />
    </symbol>
    <symbol id="accept" viewBox="0 0 640 640">
        <path
            d="M530.8 134.1C545.1 144.5 548.3 164.5 537.9 178.8L281.9 530.8C276.4 538.4 267.9 543.1 258.5 543.9C249.1 544.7 240 541.2 233.4 534.6L105.4 406.6C92.9 394.1 92.9 373.8 105.4 361.3C117.9 348.8 138.2 348.8 150.7 361.3L252.2 462.8L486.2 141.1C496.6 126.8 516.6 123.6 530.9 134z"
            fill="currentColor" />
    </symbol>
    <symbol id="cancel" viewBox="0 0 640 640">
        <path
            d="M183.1 137.4C170.6 124.9 150.3 124.9 137.8 137.4C125.3 149.9 125.3 170.2 137.8 182.7L275.2 320L137.9 457.4C125.4 469.9 125.4 490.2 137.9 502.7C150.4 515.2 170.7 515.2 183.2 502.7L320.5 365.3L457.9 502.6C470.4 515.1 490.7 515.1 503.2 502.6C515.7 490.1 515.7 469.8 503.2 457.3L365.8 320L503.1 182.6C515.6 170.1 515.6 149.8 503.1 137.3C490.6 124.8 470.3 124.8 457.8 137.3L320.5 274.7L183.1 137.4z"
            fill="currentColor" />
    </symbol>
    <symbol id="caret-down" viewBox="0 0 640 640">
        <path
            d="M300.3 440.8C312.9 451 331.4 450.3 343.1 438.6L471.1 310.6C480.3 301.4 483 287.7 478 275.7C473 263.7 461.4 256 448.5 256L192.5 256C179.6 256 167.9 263.8 162.9 275.8C157.9 287.8 160.7 301.5 169.9 310.6L297.9 438.6L300.3 440.8z"
            fill="currentColor" />
    </symbol>
    <symbol id="caret-up" viewBox="0 0 640 640">
        <path
            d="M300.3 199.2C312.9 188.9 331.4 189.7 343.1 201.4L471.1 329.4C480.3 338.6 483 352.3 478 364.3C473 376.3 461.4 384 448.5 384L192.5 384C179.6 384 167.9 376.2 162.9 364.2C157.9 352.2 160.7 338.5 169.9 329.4L297.9 201.4L300.3 199.2z"
            fill="currentColor" />

    </symbol>
</svg>